<svg xmlns="http://www.w3.org/2000/svg" width="1000" height="620" viewBox="0 0 1000 620">
  <title>压力分布示意图</title>
  <defs>
    <style>
      .title { font: 700 24px "Microsoft YaHei", "PingFang SC", Arial, sans-serif; fill: #111827; }
      .subtitle { font: 500 15px "Microsoft YaHei", "PingFang SC", Arial, sans-serif; fill: #374151; }
      .label { font: 500 14px "Microsoft YaHei", "PingFang SC", Arial, sans-serif; fill: #111827; }
      .small { font: 400 12px "Microsoft YaHei", "PingFang SC", Arial, sans-serif; fill: #374151; }
      .tiny { font: 400 11px "Microsoft YaHei", "PingFang SC", Arial, sans-serif; fill: #4b5563; }
      .seat { fill: #e5e7eb; stroke: #6b7280; stroke-width: 2; }
      .body { fill: #dbeafe; stroke: #2563eb; stroke-width: 2; }
      .bone { fill: #fef3c7; stroke: #d97706; stroke-width: 2; }
      .normal { fill: #bfdbfe; stroke: #2563eb; stroke-width: 2; }
      .warn { fill: #fed7aa; stroke: #ea580c; stroke-width: 2; }
      .risk { fill: #fecaca; stroke: #dc2626; stroke-width: 2; }
      .ok { fill: #bbf7d0; stroke: #16a34a; stroke-width: 2; }
      .line { stroke: #374151; stroke-width: 2; fill: none; }
      .arrow { stroke: #374151; stroke-width: 2.5; fill: none; marker-end: url(#arrow); }
      .greenArrow { stroke: #16a34a; stroke-width: 3; fill: none; marker-end: url(#greenArrow); }
      .redArrow { stroke: #dc2626; stroke-width: 3; fill: none; marker-end: url(#redArrow); }
      .orangeArrow { stroke: #ea580c; stroke-width: 3; fill: none; marker-end: url(#orangeArrow); }
      .grid { stroke: #e5e7eb; stroke-width: 1; }
      .note { fill: #f9fafb; stroke: #d1d5db; stroke-width: 1.5; rx: 10; }
    </style>
    <marker id="arrow" markerWidth="10" markerHeight="10" refX="8" refY="3" orient="auto">
      <path d="M0,0 L0,6 L9,3 z" fill="#374151" />
    </marker>
    <marker id="greenArrow" markerWidth="10" markerHeight="10" refX="8" refY="3" orient="auto">
      <path d="M0,0 L0,6 L9,3 z" fill="#16a34a" />
    </marker>
    <marker id="redArrow" markerWidth="10" markerHeight="10" refX="8" refY="3" orient="auto">
      <path d="M0,0 L0,6 L9,3 z" fill="#dc2626" />
    </marker>
    <marker id="orangeArrow" markerWidth="10" markerHeight="10" refX="8" refY="3" orient="auto">
      <path d="M0,0 L0,6 L9,3 z" fill="#ea580c" />
    </marker>
  </defs>
  <rect width="100%" height="100%" fill="#ffffff"/>

  <text x="40" y="50" class="title">图 1：压力不是消失，而是重新分配</text>
  <text x="40" y="82" class="subtitle">同样的体重，接触面积越小，局部峰值压强越高；接触面积越大，压力越分散。</text>

  <text x="160" y="135" class="label">集中受力：坐骨单点压痛</text>
  <rect x="90" y="420" width="320" height="48" class="seat" rx="8"/>
  <ellipse cx="250" cy="340" rx="95" ry="58" class="body"/>
  <circle cx="220" cy="410" r="20" class="risk"/>
  <circle cx="280" cy="410" r="20" class="risk"/>
  <path d="M250 185 L250 295" class="redArrow"/>
  <text x="230" y="178" class="small">体重</text>
  <text x="178" y="500" class="small">接触面积小</text>
  <text x="164" y="525" class="small">峰值压强高</text>
  <text x="154" y="550" class="small">易出现硬币大小痛点</text>

  <text x="610" y="135" class="label">分散受力：臀部 + 坐骨 + 大腿</text>
  <rect x="560" y="420" width="360" height="48" class="seat" rx="8"/>
  <ellipse cx="690" cy="350" rx="115" ry="60" class="body"/>
  <ellipse cx="800" cy="388" rx="95" ry="28" class="normal"/>
  <circle cx="660" cy="410" r="16" class="warn"/>
  <circle cx="720" cy="410" r="16" class="warn"/>
  <path d="M735 185 L735 300" class="greenArrow"/>
  <text x="715" y="178" class="small">体重</text>
  <text x="635" y="500" class="small">接触面积增大</text>
  <text x="625" y="525" class="small">峰值压强下降</text>
  <text x="605" y="550" class="small">有压力，但不一定有害</text>

  <rect x="350" y="250" width="300" height="88" class="note"/>
  <text x="382" y="282" class="label">核心公式</text>
  <text x="382" y="310" class="small">压强 = 力 / 接触面积</text>
  <text x="382" y="330" class="tiny">座椅调整的本质：改变接触面积与受力路径</text>

</svg>
