<svg xmlns="http://www.w3.org/2000/svg" width="1100" height="650" viewBox="0 0 1100 650">
  <title>骨盆姿态受力图</title>
  <defs>
    <style>
      .title { font: 700 24px "Microsoft YaHei", "PingFang SC", Arial, sans-serif; fill: #111827; }
      .subtitle { font: 500 15px "Microsoft YaHei", "PingFang SC", Arial, sans-serif; fill: #374151; }
      .label { font: 500 14px "Microsoft YaHei", "PingFang SC", Arial, sans-serif; fill: #111827; }
      .small { font: 400 12px "Microsoft YaHei", "PingFang SC", Arial, sans-serif; fill: #374151; }
      .tiny { font: 400 11px "Microsoft YaHei", "PingFang SC", Arial, sans-serif; fill: #4b5563; }
      .seat { fill: #e5e7eb; stroke: #6b7280; stroke-width: 2; }
      .body { fill: #dbeafe; stroke: #2563eb; stroke-width: 2; }
      .bone { fill: #fef3c7; stroke: #d97706; stroke-width: 2; }
      .normal { fill: #bfdbfe; stroke: #2563eb; stroke-width: 2; }
      .warn { fill: #fed7aa; stroke: #ea580c; stroke-width: 2; }
      .risk { fill: #fecaca; stroke: #dc2626; stroke-width: 2; }
      .ok { fill: #bbf7d0; stroke: #16a34a; stroke-width: 2; }
      .line { stroke: #374151; stroke-width: 2; fill: none; }
      .arrow { stroke: #374151; stroke-width: 2.5; fill: none; marker-end: url(#arrow); }
      .greenArrow { stroke: #16a34a; stroke-width: 3; fill: none; marker-end: url(#greenArrow); }
      .redArrow { stroke: #dc2626; stroke-width: 3; fill: none; marker-end: url(#redArrow); }
      .orangeArrow { stroke: #ea580c; stroke-width: 3; fill: none; marker-end: url(#orangeArrow); }
      .grid { stroke: #e5e7eb; stroke-width: 1; }
      .note { fill: #f9fafb; stroke: #d1d5db; stroke-width: 1.5; rx: 10; }
    </style>
    <marker id="arrow" markerWidth="10" markerHeight="10" refX="8" refY="3" orient="auto">
      <path d="M0,0 L0,6 L9,3 z" fill="#374151" />
    </marker>
    <marker id="greenArrow" markerWidth="10" markerHeight="10" refX="8" refY="3" orient="auto">
      <path d="M0,0 L0,6 L9,3 z" fill="#16a34a" />
    </marker>
    <marker id="redArrow" markerWidth="10" markerHeight="10" refX="8" refY="3" orient="auto">
      <path d="M0,0 L0,6 L9,3 z" fill="#dc2626" />
    </marker>
    <marker id="orangeArrow" markerWidth="10" markerHeight="10" refX="8" refY="3" orient="auto">
      <path d="M0,0 L0,6 L9,3 z" fill="#ea580c" />
    </marker>
  </defs>
  <rect width="100%" height="100%" fill="#ffffff"/>

  <text x="40" y="50" class="title">图 2：骨盆后倾 / 中立 / 过度前倾的受力差异</text>
  <text x="40" y="82" class="subtitle">骨盆角度决定坐骨压在哪里、腰椎是否自然、大腿是否参与分担。</text>

  <g transform="translate(70,130)">
    <text x="95" y="0" class="label">后倾</text>
    <rect x="0" y="340" width="270" height="40" class="seat" rx="8"/>
    <ellipse cx="130" cy="285" rx="70" ry="50" class="body" transform="rotate(-15 130 285)"/>
    <ellipse cx="125" cy="330" rx="45" ry="22" class="risk"/>
    <path d="M95 140 C110 190, 135 220, 160 260" class="line"/>
    <path d="M130 170 L95 250" class="line"/>
    <text x="28" y="415" class="small">坐骨后缘 / 尾骨方向压力 ↑</text>
    <text x="28" y="438" class="small">大腿分担 ↓，腰椎变平</text>
  </g>

  <g transform="translate(415,130)">
    <text x="95" y="0" class="label">中立</text>
    <rect x="0" y="340" width="270" height="40" class="seat" rx="8"/>
    <ellipse cx="120" cy="285" rx="72" ry="52" class="body"/>
    <ellipse cx="115" cy="330" rx="42" ry="20" class="warn"/>
    <ellipse cx="190" cy="338" rx="58" ry="18" class="normal"/>
    <path d="M130 135 C128 185, 130 225, 130 265" class="line"/>
    <path d="M130 170 L130 250" class="line"/>
    <text x="28" y="415" class="small">坐骨正下方稳定承重</text>
    <text x="28" y="438" class="small">臀部 + 大腿共同分担</text>
  </g>

  <g transform="translate(760,130)">
    <text x="78" y="0" class="label">过度前倾</text>
    <rect x="0" y="340" width="270" height="40" class="seat" rx="8"/>
    <ellipse cx="125" cy="285" rx="70" ry="50" class="body" transform="rotate(15 125 285)"/>
    <ellipse cx="105" cy="330" rx="45" ry="20" class="warn"/>
    <path d="M160 140 C145 190, 130 225, 105 260" class="line"/>
    <path d="M155 170 L105 250" class="line"/>
    <text x="28" y="415" class="small">腰椎前凸 / 腰背代偿 ↑</text>
    <text x="28" y="438" class="small">不是越前倾越好</text>
  </g>

  <rect x="310" y="560" width="480" height="48" class="note"/>
  <text x="335" y="590" class="label">目标：中立到轻微前倾，而不是后瘫或用力挺腰。</text>

</svg>
