<svg xmlns="http://www.w3.org/2000/svg" width="1000" height="700" viewBox="0 0 1000 700">
  <title>Model 3 坐垫俯视结构图</title>
  <defs>
    <style>
      .title { font: 700 24px "Microsoft YaHei", "PingFang SC", Arial, sans-serif; fill: #111827; }
      .subtitle { font: 500 15px "Microsoft YaHei", "PingFang SC", Arial, sans-serif; fill: #374151; }
      .label { font: 500 14px "Microsoft YaHei", "PingFang SC", Arial, sans-serif; fill: #111827; }
      .small { font: 400 12px "Microsoft YaHei", "PingFang SC", Arial, sans-serif; fill: #374151; }
      .tiny { font: 400 11px "Microsoft YaHei", "PingFang SC", Arial, sans-serif; fill: #4b5563; }
      .seat { fill: #e5e7eb; stroke: #6b7280; stroke-width: 2; }
      .body { fill: #dbeafe; stroke: #2563eb; stroke-width: 2; }
      .bone { fill: #fef3c7; stroke: #d97706; stroke-width: 2; }
      .normal { fill: #bfdbfe; stroke: #2563eb; stroke-width: 2; }
      .warn { fill: #fed7aa; stroke: #ea580c; stroke-width: 2; }
      .risk { fill: #fecaca; stroke: #dc2626; stroke-width: 2; }
      .ok { fill: #bbf7d0; stroke: #16a34a; stroke-width: 2; }
      .line { stroke: #374151; stroke-width: 2; fill: none; }
      .arrow { stroke: #374151; stroke-width: 2.5; fill: none; marker-end: url(#arrow); }
      .greenArrow { stroke: #16a34a; stroke-width: 3; fill: none; marker-end: url(#greenArrow); }
      .redArrow { stroke: #dc2626; stroke-width: 3; fill: none; marker-end: url(#redArrow); }
      .orangeArrow { stroke: #ea580c; stroke-width: 3; fill: none; marker-end: url(#orangeArrow); }
      .grid { stroke: #e5e7eb; stroke-width: 1; }
      .note { fill: #f9fafb; stroke: #d1d5db; stroke-width: 1.5; rx: 10; }
    </style>
    <marker id="arrow" markerWidth="10" markerHeight="10" refX="8" refY="3" orient="auto">
      <path d="M0,0 L0,6 L9,3 z" fill="#374151" />
    </marker>
    <marker id="greenArrow" markerWidth="10" markerHeight="10" refX="8" refY="3" orient="auto">
      <path d="M0,0 L0,6 L9,3 z" fill="#16a34a" />
    </marker>
    <marker id="redArrow" markerWidth="10" markerHeight="10" refX="8" refY="3" orient="auto">
      <path d="M0,0 L0,6 L9,3 z" fill="#dc2626" />
    </marker>
    <marker id="orangeArrow" markerWidth="10" markerHeight="10" refX="8" refY="3" orient="auto">
      <path d="M0,0 L0,6 L9,3 z" fill="#ea580c" />
    </marker>
  </defs>
  <rect width="100%" height="100%" fill="#ffffff"/>

  <text x="40" y="50" class="title">图 3：Model 3 坐垫俯视结构与压力区</text>
  <text x="40" y="82" class="subtitle">坐垫中央承托坐骨和臀部，侧翼提供稳定，也可能限制软组织横向展开。</text>

  <rect x="255" y="130" width="490" height="470" class="seat" rx="55"/>
  <path d="M255 185 C195 260, 195 470, 255 545" class="warn"/>
  <path d="M745 185 C805 260, 805 470, 745 545" class="warn"/>
  <rect x="330" y="165" width="340" height="360" class="normal" rx="50"/>
  <ellipse cx="430" cy="275" rx="50" ry="42" class="body"/>
  <ellipse cx="570" cy="275" rx="50" ry="42" class="body"/>
  <circle cx="430" cy="360" r="27" class="risk"/>
  <circle cx="570" cy="360" r="27" class="risk"/>
  <ellipse cx="500" cy="475" rx="150" ry="45" class="normal"/>

  <text x="377" y="252" class="small">臀部软组织</text>
  <text x="400" y="365" class="small">坐骨</text>
  <text x="540" y="365" class="small">坐骨</text>
  <text x="430" y="480" class="small">大腿后侧承托区</text>
  <text x="148" y="365" class="label">侧翼</text>
  <path d="M210 360 L270 360" class="orangeArrow"/>
  <text x="785" y="365" class="label">侧翼</text>
  <path d="M790 360 L730 360" class="orangeArrow"/>

  <rect x="90" y="600" width="820" height="52" class="note"/>
  <text x="120" y="630" class="label">解释：侧翼不是坏设计；它提升稳定性，但在臀肌紧张或骨盆后倾时，可能放大两侧软组织挤压。</text>

</svg>
