<svg xmlns="http://www.w3.org/2000/svg" width="1100" height="680" viewBox="0 0 1100 680">
  <title>右腿踩油门动态负荷链</title>
  <defs>
    <style>
      .title { font: 700 24px "Microsoft YaHei", "PingFang SC", Arial, sans-serif; fill: #111827; }
      .subtitle { font: 500 15px "Microsoft YaHei", "PingFang SC", Arial, sans-serif; fill: #374151; }
      .label { font: 500 14px "Microsoft YaHei", "PingFang SC", Arial, sans-serif; fill: #111827; }
      .small { font: 400 12px "Microsoft YaHei", "PingFang SC", Arial, sans-serif; fill: #374151; }
      .tiny { font: 400 11px "Microsoft YaHei", "PingFang SC", Arial, sans-serif; fill: #4b5563; }
      .seat { fill: #e5e7eb; stroke: #6b7280; stroke-width: 2; }
      .body { fill: #dbeafe; stroke: #2563eb; stroke-width: 2; }
      .bone { fill: #fef3c7; stroke: #d97706; stroke-width: 2; }
      .normal { fill: #bfdbfe; stroke: #2563eb; stroke-width: 2; }
      .warn { fill: #fed7aa; stroke: #ea580c; stroke-width: 2; }
      .risk { fill: #fecaca; stroke: #dc2626; stroke-width: 2; }
      .ok { fill: #bbf7d0; stroke: #16a34a; stroke-width: 2; }
      .line { stroke: #374151; stroke-width: 2; fill: none; }
      .arrow { stroke: #374151; stroke-width: 2.5; fill: none; marker-end: url(#arrow); }
      .greenArrow { stroke: #16a34a; stroke-width: 3; fill: none; marker-end: url(#greenArrow); }
      .redArrow { stroke: #dc2626; stroke-width: 3; fill: none; marker-end: url(#redArrow); }
      .orangeArrow { stroke: #ea580c; stroke-width: 3; fill: none; marker-end: url(#orangeArrow); }
      .grid { stroke: #e5e7eb; stroke-width: 1; }
      .note { fill: #f9fafb; stroke: #d1d5db; stroke-width: 1.5; rx: 10; }
    </style>
    <marker id="arrow" markerWidth="10" markerHeight="10" refX="8" refY="3" orient="auto">
      <path d="M0,0 L0,6 L9,3 z" fill="#374151" />
    </marker>
    <marker id="greenArrow" markerWidth="10" markerHeight="10" refX="8" refY="3" orient="auto">
      <path d="M0,0 L0,6 L9,3 z" fill="#16a34a" />
    </marker>
    <marker id="redArrow" markerWidth="10" markerHeight="10" refX="8" refY="3" orient="auto">
      <path d="M0,0 L0,6 L9,3 z" fill="#dc2626" />
    </marker>
    <marker id="orangeArrow" markerWidth="10" markerHeight="10" refX="8" refY="3" orient="auto">
      <path d="M0,0 L0,6 L9,3 z" fill="#ea580c" />
    </marker>
  </defs>
  <rect width="100%" height="100%" fill="#ffffff"/>

  <text x="40" y="50" class="title">图 5：右腿踩油门的动态负荷链</text>
  <text x="40" y="82" class="subtitle">右腿不是被动承重，它还持续控制油门；右侧不适常来自静态压力 + 动态肌肉负荷叠加。</text>

  <rect x="120" y="500" width="220" height="35" class="seat" rx="8"/>
  <circle cx="220" cy="405" r="42" class="body"/>
  <circle cx="330" cy="450" r="26" class="body"/>
  <circle cx="455" cy="505" r="22" class="body"/>
  <path d="M220 405 L330 450 L455 505" class="line"/>
  <rect x="520" y="470" width="70" height="25" class="warn" rx="4" transform="rotate(-18 520 470)"/>
  <text x="520" y="445" class="small">油门踏板</text>

  <path d="M455 505 C485 500, 505 490, 535 475" class="orangeArrow"/>
  <path d="M455 505 L440 545" class="line"/>
  <circle cx="440" cy="545" r="8" class="bone"/>
  <text x="385" y="575" class="small">脚跟支点</text>

  <g transform="translate(690,145)">
    <rect x="0" y="0" width="330" height="420" class="note"/>
    <text x="25" y="35" class="label">动态负荷链</text>
    <text x="25" y="75" class="small">1. 前脚掌控制油门开度</text>
    <text x="25" y="110" class="small">2. 脚踝小幅屈伸</text>
    <text x="25" y="145" class="small">3. 小腿维持稳定</text>
    <text x="25" y="180" class="small">4. 大腿后侧与股四头肌协作</text>
    <text x="25" y="215" class="small">5. 髋部和骨盆右侧参与稳定</text>
    <text x="25" y="260" class="label">关键判断</text>
    <text x="25" y="300" class="small">若完全离开油门后压力瞬间下降，</text>
    <text x="25" y="328" class="small">说明动态负荷占比高，不能只调坐垫。</text>
  </g>

  <path d="M245 355 C315 320, 425 320, 555 390" class="redArrow"/>
  <text x="320" y="310" class="small">右侧臀下 / 大腿后侧张力可能升高</text>

</svg>
