<svg xmlns="http://www.w3.org/2000/svg" width="1150" height="660" viewBox="0 0 1150 660">
  <title>实验系统流程图</title>
  <defs>
    <style>
      .title { font: 700 24px "Microsoft YaHei", "PingFang SC", Arial, sans-serif; fill: #111827; }
      .subtitle { font: 500 15px "Microsoft YaHei", "PingFang SC", Arial, sans-serif; fill: #374151; }
      .label { font: 500 14px "Microsoft YaHei", "PingFang SC", Arial, sans-serif; fill: #111827; }
      .small { font: 400 12px "Microsoft YaHei", "PingFang SC", Arial, sans-serif; fill: #374151; }
      .tiny { font: 400 11px "Microsoft YaHei", "PingFang SC", Arial, sans-serif; fill: #4b5563; }
      .seat { fill: #e5e7eb; stroke: #6b7280; stroke-width: 2; }
      .body { fill: #dbeafe; stroke: #2563eb; stroke-width: 2; }
      .bone { fill: #fef3c7; stroke: #d97706; stroke-width: 2; }
      .normal { fill: #bfdbfe; stroke: #2563eb; stroke-width: 2; }
      .warn { fill: #fed7aa; stroke: #ea580c; stroke-width: 2; }
      .risk { fill: #fecaca; stroke: #dc2626; stroke-width: 2; }
      .ok { fill: #bbf7d0; stroke: #16a34a; stroke-width: 2; }
      .line { stroke: #374151; stroke-width: 2; fill: none; }
      .arrow { stroke: #374151; stroke-width: 2.5; fill: none; marker-end: url(#arrow); }
      .greenArrow { stroke: #16a34a; stroke-width: 3; fill: none; marker-end: url(#greenArrow); }
      .redArrow { stroke: #dc2626; stroke-width: 3; fill: none; marker-end: url(#redArrow); }
      .orangeArrow { stroke: #ea580c; stroke-width: 3; fill: none; marker-end: url(#orangeArrow); }
      .grid { stroke: #e5e7eb; stroke-width: 1; }
      .note { fill: #f9fafb; stroke: #d1d5db; stroke-width: 1.5; rx: 10; }
    </style>
    <marker id="arrow" markerWidth="10" markerHeight="10" refX="8" refY="3" orient="auto">
      <path d="M0,0 L0,6 L9,3 z" fill="#374151" />
    </marker>
    <marker id="greenArrow" markerWidth="10" markerHeight="10" refX="8" refY="3" orient="auto">
      <path d="M0,0 L0,6 L9,3 z" fill="#16a34a" />
    </marker>
    <marker id="redArrow" markerWidth="10" markerHeight="10" refX="8" refY="3" orient="auto">
      <path d="M0,0 L0,6 L9,3 z" fill="#dc2626" />
    </marker>
    <marker id="orangeArrow" markerWidth="10" markerHeight="10" refX="8" refY="3" orient="auto">
      <path d="M0,0 L0,6 L9,3 z" fill="#ea580c" />
    </marker>
  </defs>
  <rect width="100%" height="100%" fill="#ffffff"/>

  <text x="40" y="50" class="title">图 7：座椅调整的工程实验流程</text>
  <text x="40" y="82" class="subtitle">从“今天感觉”转为“趋势判断”，避免频繁无序调整。</text>

  <g transform="translate(60,160)">
    <rect x="0" y="0" width="150" height="75" class="note"/>
    <text x="32" y="33" class="label">建立基线</text>
    <text x="26" y="58" class="tiny">1-3天不调整</text>

    <rect x="190" y="0" width="150" height="75" class="normal" rx="10"/>
    <text x="222" y="33" class="label">提出假设</text>
    <text x="204" y="58" class="tiny">例如升高1cm</text>

    <rect x="380" y="0" width="150" height="75" class="warn" rx="10"/>
    <text x="404" y="33" class="label">单变量调整</text>
    <text x="407" y="58" class="tiny">只改一个参数</text>

    <rect x="570" y="0" width="150" height="75" class="normal" rx="10"/>
    <text x="596" y="33" class="label">连续记录</text>
    <text x="584" y="58" class="tiny">5/30/60分钟</text>

    <rect x="760" y="0" width="150" height="75" class="note"/>
    <text x="790" y="33" class="label">趋势复盘</text>
    <text x="778" y="58" class="tiny">比较平均分</text>

    <rect x="950" y="0" width="150" height="75" class="ok" rx="10"/>
    <text x="973" y="33" class="label">保留/回退</text>
    <text x="976" y="58" class="tiny">形成下一步</text>

    <path d="M150 38 L190 38" class="arrow"/>
    <path d="M340 38 L380 38" class="arrow"/>
    <path d="M530 38 L570 38" class="arrow"/>
    <path d="M720 38 L760 38" class="arrow"/>
    <path d="M910 38 L950 38" class="arrow"/>
  </g>

  <rect x="165" y="330" width="820" height="200" class="note"/>
  <text x="200" y="368" class="label">量化判断</text>
  <text x="200" y="405" class="small">保留：目标症状下降 ≥ 2 分，且无麻刺、无安全问题、下车后无明显残留。</text>
  <text x="200" y="440" class="small">继续观察：目标症状下降，但新压力轻度增加；不麻不刺，不影响驾驶安全。</text>
  <text x="200" y="475" class="small">回退：麻刺、放射、无力、刹车腿接近伸直、身体前探、下车后残留明显。</text>

</svg>
